<svg width="256" height="256" viewBox="0 0 256 256" fill="none" xmlns="http://www.w3.org/2000/svg">
<g clip-path="url(#clip0)">
<g filter="url(#filter0_d)">
<circle cx="128" cy="128" r="96.454" fill="url(#paint0_linear)"/>
<circle cx="128" cy="128" r="96.454" fill="url(#paint1_radial)"/>
</g>
<mask id="mask0" mask-type="alpha" maskUnits="userSpaceOnUse" x="31" y="31" width="194" height="194">
<circle cx="128" cy="128" r="96.454" fill="url(#paint2_linear)"/>
<circle cx="128" cy="128" r="96.454" fill="url(#paint3_radial)"/>
</mask>
<g mask="url(#mask0)">
<g filter="url(#filter1_f)">
<circle cx="29.2418" cy="32.585" r="84.5512" fill="#155E63" fill-opacity="0.25"/>
</g>
<g filter="url(#filter2_f)">
<circle cx="136.641" cy="228.019" r="105.095" fill="#155E63" fill-opacity="0.42"/>
</g>
</g>
<path fill-rule="evenodd" clip-rule="evenodd" d="M40.1751 167.934C53.8754 141.211 81.6986 122.924 113.793 122.924C156.357 122.924 191.409 155.088 195.968 196.438C178.532 213.755 154.516 224.454 128 224.454C88.9732 224.454 55.3599 201.276 40.1751 167.934Z" fill="url(#paint4_radial)"/>
<path fill-rule="evenodd" clip-rule="evenodd" d="M40.1751 167.934C53.8754 141.211 81.6986 122.924 113.793 122.924C156.357 122.924 191.409 155.088 195.968 196.438C178.532 213.755 154.516 224.454 128 224.454C88.9732 224.454 55.3599 201.276 40.1751 167.934Z" fill="url(#paint5_radial)"/>
<path fill-rule="evenodd" clip-rule="evenodd" d="M224.454 128C224.454 181.27 181.27 224.454 128 224.454C128 171.184 171.184 128 224.454 128Z" fill="url(#paint6_linear)"/>
<path fill-rule="evenodd" clip-rule="evenodd" d="M113.793 32.585C109.623 73.4957 75.6253 105.581 33.8955 106.746C42.5592 68.2212 74.2738 38.4188 113.793 32.585Z" fill="url(#paint7_linear)"/>
<path fill-rule="evenodd" clip-rule="evenodd" d="M113.793 32.585C109.623 73.4957 75.6253 105.581 33.8955 106.746C42.5592 68.2212 74.2738 38.4188 113.793 32.585Z" fill="url(#paint8_radial)"/>
</g>
<defs>
<filter id="filter0_d" x="24.546" y="31.546" width="206.908" height="236.908" filterUnits="userSpaceOnUse" color-interpolation-filters="sRGB">
<feFlood flood-opacity="0" result="BackgroundImageFix"/>
<feColorMatrix in="SourceAlpha" type="matrix" values="0 0 0 0 0 0 0 0 0 0 0 0 0 0 0 0 0 0 127 0"/>
<feMorphology radius="26" operator="erode" in="SourceAlpha" result="effect1_dropShadow"/>
<feOffset dy="37"/>
<feGaussianBlur stdDeviation="16.5"/>
<feColorMatrix type="matrix" values="0 0 0 0 0.1495 0 0 0 0 0.575 0 0 0 0 0.043125 0 0 0 0.66 0"/>
<feBlend mode="normal" in2="BackgroundImageFix" result="effect1_dropShadow"/>
<feBlend mode="normal" in="SourceGraphic" in2="effect1_dropShadow" result="shape"/>
</filter>
<filter id="filter1_f" x="-88.3093" y="-84.9662" width="235.102" height="235.102" filterUnits="userSpaceOnUse" color-interpolation-filters="sRGB">
<feFlood flood-opacity="0" result="BackgroundImageFix"/>
<feBlend mode="normal" in="SourceGraphic" in2="BackgroundImageFix" result="shape"/>
<feGaussianBlur stdDeviation="16.5" result="effect1_foregroundBlur"/>
</filter>
<filter id="filter2_f" x="-1.45398" y="89.9235" width="276.19" height="276.19" filterUnits="userSpaceOnUse" color-interpolation-filters="sRGB">
<feFlood flood-opacity="0" result="BackgroundImageFix"/>
<feBlend mode="normal" in="SourceGraphic" in2="BackgroundImageFix" result="shape"/>
<feGaussianBlur stdDeviation="16.5" result="effect1_foregroundBlur"/>
</filter>
<linearGradient id="paint0_linear" x1="83.7843" y1="56.9665" x2="191.407" y2="206.095" gradientUnits="userSpaceOnUse">
<stop stop-color="#66FFA3"/>
<stop offset="0.494374" stop-color="#91EF84"/>
<stop offset="1" stop-color="#CDE862"/>
</linearGradient>
<radialGradient id="paint1_radial" cx="0" cy="0" r="1" gradientUnits="userSpaceOnUse" gradientTransform="translate(128 128) rotate(90) scale(96.454)">
<stop offset="0.635417" stop-color="white" stop-opacity="0"/>
<stop offset="0.807292" stop-color="#F4FFC6" stop-opacity="0.188235"/>
<stop offset="1" stop-color="#ECFFA0" stop-opacity="0.5"/>
</radialGradient>
<linearGradient id="paint2_linear" x1="83.7843" y1="56.9665" x2="191.407" y2="206.095" gradientUnits="userSpaceOnUse">
<stop stop-color="#66FFA3"/>
<stop offset="0.494374" stop-color="#91EF84"/>
<stop offset="1" stop-color="#CDE862"/>
</linearGradient>
<radialGradient id="paint3_radial" cx="0" cy="0" r="1" gradientUnits="userSpaceOnUse" gradientTransform="translate(128 128) rotate(90) scale(96.454)">
<stop offset="0.635417" stop-color="white" stop-opacity="0"/>
<stop offset="0.807292" stop-color="#F4FFC6" stop-opacity="0.188235"/>
<stop offset="1" stop-color="#ECFFA0" stop-opacity="0.5"/>
</radialGradient>
<radialGradient id="paint4_radial" cx="0" cy="0" r="1" gradientUnits="userSpaceOnUse" gradientTransform="translate(172.67 204.26) rotate(-157.085) scale(124.741 134.391)">
<stop offset="0.334116" stop-color="#5FBE18"/>
<stop offset="0.640886" stop-color="#9DCC1B"/>
<stop offset="1" stop-color="#C9E135"/>
</radialGradient>
<radialGradient id="paint5_radial" cx="0" cy="0" r="1" gradientUnits="userSpaceOnUse" gradientTransform="translate(115.221 201.127) rotate(87.8737) scale(76.825 89.7727)">
<stop offset="0.539181" stop-color="#6EE138" stop-opacity="0"/>
<stop offset="1" stop-color="#A7FAFF" stop-opacity="0.4"/>
</radialGradient>
<linearGradient id="paint6_linear" x1="191.728" y1="149.438" x2="255.405" y2="259.736" gradientUnits="userSpaceOnUse">
<stop stop-color="#C6D51C"/>
<stop offset="1" stop-color="#40B716"/>
</linearGradient>
<linearGradient id="paint7_linear" x1="73.8442" y1="32.585" x2="73.8442" y2="106.746" gradientUnits="userSpaceOnUse">
<stop stop-color="#BDD31C"/>
<stop offset="1" stop-color="#71DB23"/>
</linearGradient>
<radialGradient id="paint8_radial" cx="0" cy="0" r="1" gradientUnits="userSpaceOnUse" gradientTransform="translate(28.8859 21.798) rotate(43.0651) scale(88.4164 95.2559)">
<stop offset="0.65671" stop-color="#23B14B" stop-opacity="0"/>
<stop offset="0.839391" stop-color="#90E2AE" stop-opacity="0.14"/>
<stop offset="1" stop-color="#D0FFE9" stop-opacity="0.47"/>
</radialGradient>
<clipPath id="clip0">
<rect width="256" height="256" fill="white"/>
</clipPath>
</defs>
</svg>
